<svg width="22" height="22" viewBox="0 0 22 22" xmlns="http://www.w3.org/2000/svg">
<path fillRule="evenodd" clipRule="evenodd" d="M11 0.25C5.06279 0.25 0.25 5.06279 0.25 11C0.25 16.9372 5.06279 21.75 11 21.75C16.9372 21.75 21.75 16.9372 21.75 11C21.75 5.06279 16.9372 0.25 11 0.25ZM1.75 11C1.75 5.89121 5.89121 1.75 11 1.75C16.1088 1.75 20.25 5.89121 20.25 11C20.25 16.1088 16.1088 20.25 11 20.25C5.89121 20.25 1.75 16.1088 1.75 11ZM7.99955 9.20892C7.70624 8.91645 7.23137 8.91712 6.93889 9.21043C6.64641 9.50374 6.64709 9.97861 6.94039 10.2711L10.4704 13.7911C10.7631 14.083 11.2368 14.083 11.5295 13.7911L15.0595 10.2711C15.3529 9.97861 15.3535 9.50374 15.0611 9.21043C14.7686 8.91712 14.2937 8.91645 14.0004 9.20892L11 12.2008L7.99955 9.20892Z" />
</svg>
